<svg xmlns="http://www.w3.org/2000/svg" xmlns:svg="http://www.w3.org/2000/svg" xmlns:xlink="http://www.w3.org/1999/xlink" version="1.0" height="673.4499999999999pt" width="1383.0498321533203pt" viewBox="20.05 350.65 1391.0498321533203 679.4499999999999" ><defs><style type="text/css">
            @font-face {
                font-family: 'noto_regular';
                src: url('https://app.creately.com/diagram/assets/fonts/noto/noto-regular.woff') format('woff'),
                     url('https://app.creately.com/diagram/assets/fonts/noto/noto-regular.woff2') format('woff2');
                font-weight: normal;
                font-style: normal;
            }
        p {
            margin: 0;
        }
        </style></defs><defs><style>
            span{ display: inline-block; }
        </style></defs><g id="27wrvwtukc"><g transform="translate(655 620)"><path d="M 55.5,111 L 55.5,111 L 55.5,111 A 55.5 55.5 0 0 1 0 55.50000000000001 L 0,55.5 L 0,55.50000000000001 A 55.5 55.5 0 0 1 55.5 0 L 55.5,0 L 55.5,0 L 55.5,0 A 55.5 55.5 0 0 1 111 55.5 L 111,55.5 L 111,55.5 A 55.5 55.5 0 0 1 55.5 111 L 55.5,111 Z" fill="rgba(149,149,149,1)" stroke="#959595" stroke-width="2" stroke-linecap="round" stroke-linejoin="round"/></g><g transform="translate(691, 666) rotate(0, 19.5, 9.5)" width="39" height="19"><text text-decoration="none" x="3.5" fill="rgb(255, 255, 255)" font-weight="bold" font-size="12pt" font-family="Lato"  y="15">Idea</text><text text-decoration="none" x="35.5" fill="#4b4b4b" font-size="10pt" font-family="noto_regular"  y="15"></text></g></g><g id="sv4ojisl6x"><g transform="translate(865.4 476)"><path d="M 1,1 L 133.9998321533203,1 L 133.9998321533203,39 L 1,39 Z" fill="rgb(220, 200, 82)" stroke="rgb(220, 200, 82)" stroke-width="2" stroke-linecap="round" stroke-linejoin="round"/></g><g transform="translate(870.3999937834562, 483.1) rotate(0, 0, 0)" width="49" height="19"><text text-decoration="none" x="0" fill="#ffffff" font-weight="bold" font-size="11pt" font-family="Lato"  y="15">Tema&#160;</text><text text-decoration="none" x="42" fill="#4b4b4b" font-size="10pt" font-family="noto_regular"  y="15"></text></g></g><g id="444ys0wqq4"><g transform="translate(419 479.65)"><path d="M 1,1 L 133.9998321533203,1 L 133.9998321533203,39 L 1,39 Z" fill="rgb(230, 105, 114)" stroke="rgb(230, 105, 114)" stroke-width="2" stroke-linecap="round" stroke-linejoin="round"/></g><g transform="translate(505.24989276462134, 486.75) rotate(0, 0, 0)" width="49" height="19"><text text-decoration="none" x="0" fill="#ffffff" font-weight="bold" font-size="11pt" font-family="Lato"  y="15">Tema&#160;</text><text text-decoration="none" x="42" fill="#4b4b4b" font-size="10pt" font-family="noto_regular"  y="15"></text></g></g><g id="1kx9w9npjw"><g transform="translate(419 858.9)"><path d="M 1,1 L 133.9998321533203,1 L 133.9998321533203,39 L 1,39 Z" fill="rgb(72, 110, 160)" stroke="rgb(72, 110, 160)" stroke-width="2" stroke-linecap="round" stroke-linejoin="round"/></g><g transform="translate(505.24989276462134, 866) rotate(0, 0, 0)" width="49" height="19"><text text-decoration="none" x="0" fill="#ffffff" font-weight="bold" font-size="11pt" font-family="Lato"  y="15">Tema&#160;</text><text text-decoration="none" x="42" fill="#4b4b4b" font-size="10pt" font-family="noto_regular"  y="15"></text></g></g><g id="3f72bj6bwn"><g transform="translate(865.4 858.9)"><path d="M 1,1 L 133.9998321533203,1 L 133.9998321533203,39 L 1,39 Z" fill="rgb(26, 188, 156)" stroke="rgb(26, 188, 156)" stroke-width="2" stroke-linecap="round" stroke-linejoin="round"/></g><g transform="translate(870.3999937834562, 866) rotate(0, 0, 0)" width="49" height="19"><text text-decoration="none" x="0" fill="#f2fcf9" font-weight="bold" font-size="11pt" font-family="Lato"  y="15">Tema&#160;</text><text text-decoration="none" x="42" fill="#4b4b4b" font-size="10pt" font-family="noto_regular"  y="15"></text></g></g><g id="65oi4qksx5"><g transform="translate(1070.2 404.65)"><path d="M 1,1 L 133.9998321533203,1 L 133.9998321533203,39 L 1,39 Z" fill="rgb(220, 200, 82)" stroke="rgb(220, 200, 82)" stroke-width="2" stroke-linecap="round" stroke-linejoin="round"/></g><g transform="translate(1115.7999433051216, 411.75) rotate(0, 0, 0)" width="49" height="19"><text text-decoration="none" x="0" fill="#ffffff" font-weight="bold" font-size="11pt" font-family="Lato"  y="15">Tema&#160;</text><text text-decoration="none" x="42" fill="#4b4b4b" font-size="10pt" font-family="noto_regular"  y="15"></text></g></g><g id="5bmigym074"><g transform="translate(1070.2 476.7)"><path d="M 1,1 L 133.9998321533203,1 L 133.9998321533203,39 L 1,39 Z" fill="rgb(220, 200, 82)" stroke="rgb(220, 200, 82)" stroke-width="2" stroke-linecap="round" stroke-linejoin="round"/></g><g transform="translate(1115.7999433051216, 483.8) rotate(0, 0, 0)" width="49" height="19"><text text-decoration="none" x="0" fill="#ffffff" font-weight="bold" font-size="11pt" font-family="Lato"  y="15">Tema&#160;</text><text text-decoration="none" x="42" fill="#4b4b4b" font-size="10pt" font-family="noto_regular"  y="15"></text></g></g><g id="20rgc7i2d0"><g transform="translate(1070.2 544.3)"><path d="M 1,1 L 133.9998321533203,1 L 133.9998321533203,39 L 1,39 Z" fill="rgb(220, 200, 82)" stroke="rgb(220, 200, 82)" stroke-width="2" stroke-linecap="round" stroke-linejoin="round"/></g><g transform="translate(1115.7999433051216, 551.4) rotate(0, 0, 0)" width="49" height="19"><text text-decoration="none" x="0" fill="#ffffff" font-weight="bold" font-size="11pt" font-family="Lato"  y="15">Tema&#160;</text><text text-decoration="none" x="42" fill="#4b4b4b" font-size="10pt" font-family="noto_regular"  y="15"></text></g></g><g id="24k61fgsen"><g transform="translate(211.75 779.2)"><path d="M 1,1 L 133.9998321533203,1 L 133.9998321533203,39 L 1,39 Z" fill="rgb(72, 110, 160)" stroke="rgb(72, 110, 160)" stroke-width="2" stroke-linecap="round" stroke-linejoin="round"/></g><g transform="translate(257.34994330512154, 786.3000000000001) rotate(0, 0, 0)" width="49" height="19"><text text-decoration="none" x="0" fill="#ffffff" font-weight="bold" font-size="11pt" font-family="Lato"  y="15">Tema&#160;</text><text text-decoration="none" x="42" fill="#4b4b4b" font-size="10pt" font-family="noto_regular"  y="15"></text></g></g><g id="ecpwi3y0jd"><g transform="translate(211.75 851.5)"><path d="M 1,1 L 133.9998321533203,1 L 133.9998321533203,39 L 1,39 Z" fill="rgb(72, 110, 160)" stroke="rgb(72, 110, 160)" stroke-width="2" stroke-linecap="round" stroke-linejoin="round"/></g><g transform="translate(257.34994330512154, 858.6) rotate(0, 0, 0)" width="49" height="19"><text text-decoration="none" x="0" fill="#ffffff" font-weight="bold" font-size="11pt" font-family="Lato"  y="15">Tema&#160;</text><text text-decoration="none" x="42" fill="#4b4b4b" font-size="10pt" font-family="noto_regular"  y="15"></text></g></g><g id="27nvd1zly2"><g transform="translate(211.75 919.1)"><path d="M 1,1 L 133.9998321533203,1 L 133.9998321533203,39 L 1,39 Z" fill="rgb(72, 110, 160)" stroke="rgb(72, 110, 160)" stroke-width="2" stroke-linecap="round" stroke-linejoin="round"/></g><g transform="translate(257.34994330512154, 926.2) rotate(0, 0, 0)" width="49" height="19"><text text-decoration="none" x="0" fill="#ffffff" font-weight="bold" font-size="11pt" font-family="Lato"  y="15">Tema&#160;</text><text text-decoration="none" x="42" fill="#4b4b4b" font-size="10pt" font-family="noto_regular"  y="15"></text></g></g><g id="1dgvb5jspd"><g transform="translate(25.05 353.65)"><path d="M 1,1 L 133.9998321533203,1 L 133.9998321533203,39 L 1,39 Z" fill="rgb(230, 105, 114)" stroke="rgb(230, 105, 114)" stroke-width="2" stroke-linecap="round" stroke-linejoin="round"/></g><g transform="translate(70.64994330512152, 360.75) rotate(0, 0, 0)" width="49" height="19"><text text-decoration="none" x="0" fill="#ffffff" font-weight="bold" font-size="11pt" font-family="Lato"  y="15">Tema&#160;</text><text text-decoration="none" x="42" fill="#4b4b4b" font-size="10pt" font-family="noto_regular"  y="15"></text></g></g><g id="1i7leylsg4"><g transform="translate(25.1 420.55)"><path d="M 1,1 L 133.9998321533203,1 L 133.9998321533203,39 L 1,39 Z" fill="rgb(230, 105, 114)" stroke="rgb(230, 105, 114)" stroke-width="2" stroke-linecap="round" stroke-linejoin="round"/></g><g transform="translate(70.69994330512154, 427.65000000000003) rotate(0, 0, 0)" width="49" height="19"><text text-decoration="none" x="0" fill="#ffffff" font-weight="bold" font-size="11pt" font-family="Lato"  y="15">Tema&#160;</text><text text-decoration="none" x="42" fill="#4b4b4b" font-size="10pt" font-family="noto_regular"  y="15"></text></g></g><g id="76t51dn9k0"><g transform="translate(211.75 420.1)"><path d="M 1,1 L 133.9998321533203,1 L 133.9998321533203,39 L 1,39 Z" fill="rgb(230, 105, 114)" stroke="rgb(230, 105, 114)" stroke-width="2" stroke-linecap="round" stroke-linejoin="round"/></g><g transform="translate(257.34994330512154, 427.20000000000005) rotate(0, 0, 0)" width="49" height="19"><text text-decoration="none" x="0" fill="#ffffff" font-weight="bold" font-size="11pt" font-family="Lato"  y="15">Tema&#160;</text><text text-decoration="none" x="42" fill="#4b4b4b" font-size="10pt" font-family="noto_regular"  y="15"></text></g></g><g id="9nnzzohvif"><g transform="translate(211.75 529.25)"><path d="M 1,1 L 133.9998321533203,1 L 133.9998321533203,39 L 1,39 Z" fill="rgb(230, 105, 114)" stroke="rgb(230, 105, 114)" stroke-width="2" stroke-linecap="round" stroke-linejoin="round"/></g><g transform="translate(257.34994330512154, 536.35) rotate(0, 0, 0)" width="49" height="19"><text text-decoration="none" x="0" fill="#ffffff" font-weight="bold" font-size="11pt" font-family="Lato"  y="15">Tema&#160;</text><text text-decoration="none" x="42" fill="#4b4b4b" font-size="10pt" font-family="noto_regular"  y="15"></text></g></g><g id="nk4r0eminx"><g><path d="M 276.75,420.1 C 260.412,381.082 225.402,367.14699999999993 160.05,373.65" fill="none" stroke="#566e8b" stroke-width="1.5" stroke-linecap="round" stroke-linejoin="round"/><path d="M 160.05,373.65 L 169.27227343175855,378.51071388579487 L 168.13356336567466,367.0672293034922 Z" fill="rgb(86,110,139)" stroke="#566e8b" stroke-width="1.5" stroke-linecap="round" stroke-linejoin="round"/></g></g><g id="uvhez0etg5"><g><path d="M 211.75,440.1 C 204.519,440.478 189.024,440.613 160.1,440.55" fill="none" stroke="#566e8b" stroke-width="1.5" stroke-linecap="round" stroke-linejoin="round"/><path d="M 160.1,440.55 L 168.7831073753166,446.31892650658693 L 168.80815571860984,434.818953785728 Z" fill="rgb(86,110,139)" stroke="#566e8b" stroke-width="1.5" stroke-linecap="round" stroke-linejoin="round"/></g></g><g id="23x8352rm4"><g><path d="M 484,479.65 C 464.785,446.42800000000005 423.61,434.56300000000005 346.75,440.1" fill="none" stroke="#566e8b" stroke-width="1.5" stroke-linecap="round" stroke-linejoin="round"/><path d="M 346.75,440.1 L 355.83633510066215,445.21032104355044 L 355.01001569269084,433.74004658144577 Z" fill="rgb(86,110,139)" stroke="#566e8b" stroke-width="1.5" stroke-linecap="round" stroke-linejoin="round"/></g></g><g id="1kyj9trcv5"><g><path d="M 484,519.65 C 464.785,544.514 423.61,553.394 346.75,549.25" fill="none" stroke="#566e8b" stroke-width="1.5" stroke-linecap="round" stroke-linejoin="round"/><path d="M 346.75,549.25 L 355.12347212582387,555.459817331269 L 355.74260930590253,543.97649598454 Z" fill="rgb(86,110,139)" stroke="#566e8b" stroke-width="1.5" stroke-linecap="round" stroke-linejoin="round"/></g></g><g id="4xpgc9esmo"><g><path d="M 419,878.9 C 408.885,872.684 387.21000000000004,870.4639999999999 346.75,871.5" fill="none" stroke="#566e8b" stroke-width="1.5" stroke-linecap="round" stroke-linejoin="round"/><path d="M 346.75,871.5 L 355.58998654285324,877.0255320695705 L 355.2956193591849,865.5293001668479 Z" fill="rgb(86,110,139)" stroke="#566e8b" stroke-width="1.5" stroke-linecap="round" stroke-linejoin="round"/></g></g><g id="4ate65lxhx"><g><path d="M 484,858.9 C 464.785,808.7520000000001 423.61,790.8420000000001 346.75,799.2" fill="none" stroke="#566e8b" stroke-width="1.5" stroke-linecap="round" stroke-linejoin="round"/><path d="M 346.75,799.2 L 356.0162990640369,803.9762504525526 L 354.7730815843661,792.5436474987961 Z" fill="rgb(86,110,139)" stroke="#566e8b" stroke-width="1.5" stroke-linecap="round" stroke-linejoin="round"/></g></g><g id="w4i79i9ayd"><g><path d="M 484,898.9 C 464.785,932.668 423.61,944.728 346.75,939.1" fill="none" stroke="#566e8b" stroke-width="1.5" stroke-linecap="round" stroke-linejoin="round"/><path d="M 346.75,939.1 L 355.0025194824133,945.4696773012507 L 355.84234751663064,934.0003839981329 Z" fill="rgb(86,110,139)" stroke="#566e8b" stroke-width="1.5" stroke-linecap="round" stroke-linejoin="round"/></g></g><g id="1fsd33u4b8"><g><path d="M 930.4,476 C 949.972,432.866 991.912,417.461 1070.2,424.65" fill="none" stroke="#566e8b" stroke-width="1.5" stroke-linecap="round" stroke-linejoin="round"/><path d="M 1070.2,424.65 L 1062.0665763772286,418.1289351404681 L 1061.0149832246427,429.58075385373087 Z" fill="rgb(86,110,139)" stroke="#566e8b" stroke-width="1.5" stroke-linecap="round" stroke-linejoin="round"/></g></g><g id="4b0a31ir2e"><g><path d="M 1000.4,496 C 1010.172,496.58799999999997 1031.112,496.798 1070.2,496.7" fill="none" stroke="#566e8b" stroke-width="1.5" stroke-linecap="round" stroke-linejoin="round"/><path d="M 1070.2,496.7 L 1061.4899590120158,490.9718194234718 L 1061.5187912996216,502.47178327990156 Z" fill="rgb(86,110,139)" stroke="#566e8b" stroke-width="1.5" stroke-linecap="round" stroke-linejoin="round"/></g></g><g id="amsir2qtrs"><g><path d="M 930.4,516 C 949.972,556.5719999999999 991.912,571.0619999999999 1070.2,564.3" fill="none" stroke="#566e8b" stroke-width="1.5" stroke-linecap="round" stroke-linejoin="round"/><path d="M 1070.2,564.3 L 1061.0417991018996,559.3196161754627 L 1062.03140853001,570.7769576288626 Z" fill="rgb(86,110,139)" stroke="#566e8b" stroke-width="1.5" stroke-linecap="round" stroke-linejoin="round"/></g></g><g id="11osen5v7p"><g transform="translate(1067.7 760)"><path d="M 1,1 L 133.9998476409912,1 L 133.9998476409912,39 L 1,39 Z" fill="rgb(26, 188, 156)" stroke="rgb(26, 188, 156)" stroke-width="2" stroke-linecap="round" stroke-linejoin="round"/></g><g transform="translate(1113.299947392146, 767.1) rotate(0, 0, 0)" width="49" height="19"><text text-decoration="none" x="0" fill="#f2fcf9" font-weight="bold" font-size="11pt" font-family="Lato"  y="15">Tema&#160;</text><text text-decoration="none" x="42" fill="#4b4b4b" font-size="10pt" font-family="noto_regular"  y="15"></text></g></g><g id="dmbcoppisy"><g transform="translate(1070.2 955)"><path d="M 1,1 L 133.9998321533203,1 L 133.9998321533203,39 L 1,39 Z" fill="rgb(26, 188, 156)" stroke="rgb(26, 188, 156)" stroke-width="2" stroke-linecap="round" stroke-linejoin="round"/></g><g transform="translate(1115.7999433051216, 962.1) rotate(0, 0, 0)" width="49" height="19"><text text-decoration="none" x="0" fill="#f2fcf9" font-weight="bold" font-size="11pt" font-family="Lato"  y="15">Tema&#160;</text><text text-decoration="none" x="42" fill="#4b4b4b" font-size="10pt" font-family="noto_regular"  y="15"></text></g></g><g id="1dghtfolrg"><g transform="translate(1273.1 720)"><path d="M 1,1 L 133.9998321533203,1 L 133.9998321533203,39 L 1,39 Z" fill="rgb(26, 188, 156)" stroke="rgb(26, 188, 156)" stroke-width="2" stroke-linecap="round" stroke-linejoin="round"/></g><g transform="translate(1318.6999433051215, 727.1) rotate(0, 0, 0)" width="49" height="19"><text text-decoration="none" x="0" fill="#f2fcf9" font-weight="bold" font-size="11pt" font-family="Lato"  y="15">Tema&#160;</text><text text-decoration="none" x="42" fill="#4b4b4b" font-size="10pt" font-family="noto_regular"  y="15"></text></g></g><g id="1jersh0dvb"><g transform="translate(1273.1 790)"><path d="M 1,1 L 133.9998321533203,1 L 133.9998321533203,39 L 1,39 Z" fill="rgb(26, 188, 156)" stroke="rgb(26, 188, 156)" stroke-width="2" stroke-linecap="round" stroke-linejoin="round"/></g><g transform="translate(1318.6999433051215, 797.1) rotate(0, 0, 0)" width="49" height="19"><text text-decoration="none" x="0" fill="#f2fcf9" font-weight="bold" font-size="11pt" font-family="Lato"  y="15">Tema&#160;</text><text text-decoration="none" x="42" fill="#4b4b4b" font-size="10pt" font-family="noto_regular"  y="15"></text></g></g><g id="1xgz1pzxhn"><g transform="translate(1273.1 915)"><path d="M 1,1 L 133.9998321533203,1 L 133.9998321533203,39 L 1,39 Z" fill="rgb(26, 188, 156)" stroke="rgb(26, 188, 156)" stroke-width="2" stroke-linecap="round" stroke-linejoin="round"/></g><g transform="translate(1318.6999433051215, 922.1) rotate(0, 0, 0)" width="49" height="19"><text text-decoration="none" x="0" fill="#f2fcf9" font-weight="bold" font-size="11pt" font-family="Lato"  y="15">Tema&#160;</text><text text-decoration="none" x="42" fill="#4b4b4b" font-size="10pt" font-family="noto_regular"  y="15"></text></g></g><g id="69hzqufu3g"><g transform="translate(1273.1 987.1)"><path d="M 1,1 L 133.9998321533203,1 L 133.9998321533203,39 L 1,39 Z" fill="rgb(26, 188, 156)" stroke="rgb(26, 188, 156)" stroke-width="2" stroke-linecap="round" stroke-linejoin="round"/></g><g transform="translate(1318.6999433051215, 994.2) rotate(0, 0, 0)" width="49" height="19"><text text-decoration="none" x="0" fill="#f2fcf9" font-weight="bold" font-size="11pt" font-family="Lato"  y="15">Tema&#160;</text><text text-decoration="none" x="42" fill="#4b4b4b" font-size="10pt" font-family="noto_regular"  y="15"></text></g></g><g id="vw18ndxeza"><g><path d="M 710,620 C 688.16,518.906 641.3599999999999,482.80099999999993 554,499.65" fill="none" stroke="#566e8b" stroke-width="1.5" stroke-linecap="round" stroke-linejoin="round"/></g></g><g id="1kqh6gjw46"><g><path d="M 710,620 C 731.7560000000001,515.84 778.376,478.64000000000004 865.4,496" fill="none" stroke="#566e8b" stroke-width="1.5" stroke-linecap="round" stroke-linejoin="round"/></g></g><g id="14ei9240y3"><g><path d="M 710,730 C 688.16,855.076 641.3599999999999,899.746 554,878.9" fill="none" stroke="#566e8b" stroke-width="1.5" stroke-linecap="round" stroke-linejoin="round"/></g></g><g id="27ifb8bvj6"><g><path d="M 710,730 C 731.7560000000001,855.076 778.376,899.746 865.4,878.9" fill="none" stroke="#566e8b" stroke-width="1.5" stroke-linecap="round" stroke-linejoin="round"/></g></g><g id="1kmooz137b"><g><path d="M 930.4,858.9 C 949.622,792.624 990.812,768.9540000000001 1067.7,780" fill="none" stroke="#566e8b" stroke-width="1.5" stroke-linecap="round" stroke-linejoin="round"/><path d="M 1067.7,780 L 1059.910388158471,773.0718823560804 L 1058.27504766036,784.4550129208784 Z" fill="rgb(86,110,139)" stroke="#566e8b" stroke-width="1.5" stroke-linecap="round" stroke-linejoin="round"/></g></g><g id="5sovtpz992"><g><path d="M 930.4,898.9 C 949.972,962.8240000000001 991.912,985.654 1070.2,975" fill="none" stroke="#566e8b" stroke-width="1.5" stroke-linecap="round" stroke-linejoin="round"/><path d="M 1070.2,975 L 1060.8084119863547,970.4750755463066 L 1062.359122060212,981.8700436580144 Z" fill="rgb(86,110,139)" stroke="#566e8b" stroke-width="1.5" stroke-linecap="round" stroke-linejoin="round"/></g></g><g id="1g8s5bbrlo"><g><path d="M 1202.7,780 C 1212.556,805.2 1233.676,814.2 1273.1,810" fill="none" stroke="#566e8b" stroke-width="1.5" stroke-linecap="round" stroke-linejoin="round"/><path d="M 1273.1,810 L 1263.8441532848835,805.2035254284059 L 1265.0624015732426,816.6388160284698 Z" fill="rgb(86,110,139)" stroke="#566e8b" stroke-width="1.5" stroke-linecap="round" stroke-linejoin="round"/></g></g><g id="1r80gx2hue"><g><path d="M 1205.2,975 C 1214.706,941.4 1235.076,929.4 1273.1,935" fill="none" stroke="#566e8b" stroke-width="1.5" stroke-linecap="round" stroke-linejoin="round"/><path d="M 1273.1,935 L 1265.3349418790021,928.0443735647173 L 1263.6593490803043,939.4216486678758 Z" fill="rgb(86,110,139)" stroke="#566e8b" stroke-width="1.5" stroke-linecap="round" stroke-linejoin="round"/></g></g><g id="184a39ttob"><g><path d="M 1205.2,975 C 1214.706,1001.9639999999999 1235.076,1011.594 1273.1,1007.1" fill="none" stroke="#566e8b" stroke-width="1.5" stroke-linecap="round" stroke-linejoin="round"/><path d="M 1273.1,1007.1 L 1263.789564890677,1002.4103662398047 L 1265.1393383061115,1013.8308790009283 Z" fill="rgb(86,110,139)" stroke="#566e8b" stroke-width="1.5" stroke-linecap="round" stroke-linejoin="round"/></g></g><g id="25nj94obq8"><g><path d="M 1202.7,780 C 1212.556,746.4 1233.676,734.4 1273.1,740" fill="none" stroke="#566e8b" stroke-width="1.5" stroke-linecap="round" stroke-linejoin="round"/><path d="M 1273.1,740 L 1265.2994120694914,733.0842430155418 L 1263.682123801712,744.4699524207086 Z" fill="rgb(86,110,139)" stroke="#566e8b" stroke-width="1.5" stroke-linecap="round" stroke-linejoin="round"/></g></g></svg>